<svg xmlns="http://www.w3.org/2000/svg" viewBox="0 0 32 32">
  <path d="M10 6C8 6 7 7.5 7 9v4c0 1.5-1 3-3 3 2 0 3 1.5 3 3v4c0 1.5 1 3 3 3" stroke="#fbbf24" fill="none" stroke-width="2" stroke-linecap="round"/>
  <path d="M22 6c2 0 3 1.5 3 3v4c0 1.5 1 3 3 3-2 0-3 1.5-3 3v4c0 1.5-1 3-3 3" stroke="#7c8cf5" fill="none" stroke-width="2" stroke-linecap="round"/>
  <path d="M13 16h6m0 0l-2-2m2 2l-2 2" stroke="#e8eaf0" fill="none" stroke-width="1.5" stroke-linecap="round" stroke-linejoin="round"/>
</svg>
