<svg xmlns="http://www.w3.org/2000/svg" viewBox="0 0 1024 1024">
  <g fill="#22d3ee">
    <rect x="104" y="104" width="144" height="144" rx="18"/>
    <rect x="272" y="104" width="144" height="144" rx="18"/>
    <rect x="104" y="272" width="144" height="144" rx="18"/>
    <rect x="608" y="104" width="144" height="144" rx="18"/>
    <rect x="776" y="104" width="144" height="144" rx="18"/>
    <rect x="776" y="272" width="144" height="144" rx="18"/>
    <rect x="440" y="440" width="144" height="144" rx="18"/>
    <rect x="104" y="608" width="144" height="144" rx="18"/>
    <rect x="104" y="776" width="144" height="144" rx="18"/>
    <rect x="272" y="776" width="144" height="144" rx="18"/>
    <rect x="776" y="608" width="144" height="144" rx="18"/>
    <rect x="608" y="776" width="144" height="144" rx="18"/>
    <rect x="776" y="776" width="144" height="144" rx="18"/>
  </g>
</svg>
